<svg width="124" height="33" viewBox="0 0 124 33" fill="none" xmlns="http://www.w3.org/2000/svg">
<path d="M58.8623 10.936C56.8274 10.936 55.1716 12.5943 55.1716 14.6316V19.9097C55.1716 21.9467 56.8284 23.6042 58.8638 23.6042H64.1371C66.1723 23.6042 67.8283 21.946 67.8283 19.9087V14.6301C67.8283 12.5933 66.1715 10.936 64.1361 10.936H58.8623ZM65.2969 12.9629C65.5764 12.9629 65.8032 13.19 65.8032 13.4697C65.8032 13.7494 65.5764 13.9764 65.2969 13.9764C65.0175 13.9764 64.7907 13.7494 64.7907 13.4697C64.7907 13.19 65.0175 12.9629 65.2969 12.9629ZM61.4999 13.9764C63.3149 13.9764 64.7907 15.4535 64.7907 17.2701C64.7907 19.0867 63.3147 20.5639 61.4999 20.5639C59.685 20.5639 58.2092 19.0865 58.2092 17.2701C58.2092 15.4538 59.685 13.9764 61.4999 13.9764ZM61.4999 14.9899C60.2416 14.9899 59.2218 16.0107 59.2218 17.2701C59.2218 18.5296 60.2416 19.5504 61.4999 19.5504C62.7583 19.5504 63.7781 18.5296 63.7781 17.2701C63.7781 16.0107 62.7583 14.9899 61.4999 14.9899Z" fill="#D23939"/>
<path d="M16.0102 9.69385C11.9778 9.69385 8.70825 12.9833 8.70825 17.0401C8.70825 20.7232 11.4052 23.7645 14.9185 24.2957V18.9869H13.1119V17.056H14.9185V15.7709C14.9185 13.6436 15.9487 12.7101 17.7062 12.7101C18.5476 12.7101 18.9933 12.7731 19.2036 12.8013V14.4867H18.005C17.2591 14.4867 16.9984 15.1988 16.9984 16.0006V17.056H19.1848L18.8885 18.9869H16.9984V24.311C20.5623 23.825 23.3121 20.7593 23.3121 17.0401C23.3121 12.9833 20.0428 9.69385 16.0102 9.69385Z" fill="#00B2FF"/>
<path d="M115.557 11.3098C114.963 11.5861 114.325 11.7703 113.652 11.8573C114.336 11.4304 114.863 10.7494 115.11 9.9449C114.47 10.3394 113.76 10.6291 113.005 10.7818C112.402 10.1104 111.542 9.69385 110.589 9.69385C108.758 9.69385 107.275 11.2388 107.275 13.1435C107.275 13.413 107.305 13.6756 107.361 13.9305C104.608 13.7852 102.166 12.4102 100.532 10.3234C100.245 10.8332 100.083 11.4304 100.083 12.0606C100.083 13.2582 100.667 14.3123 101.557 14.9335C101.014 14.916 100.502 14.7573 100.055 14.5027C100.055 14.5131 100.055 14.5286 100.055 14.5431C100.055 16.2167 101.197 17.6101 102.712 17.9274C102.435 18.007 102.142 18.0513 101.841 18.0513C101.627 18.0513 101.418 18.0258 101.216 17.9877C101.638 19.3553 102.862 20.355 104.311 20.3844C103.177 21.3081 101.749 21.8613 100.195 21.8613C99.9271 21.8613 99.6649 21.8453 99.4055 21.8123C100.873 22.7883 102.615 23.3605 104.485 23.3605C110.58 23.3605 113.914 18.103 113.914 13.5422C113.914 13.3928 113.91 13.2439 113.903 13.0968C114.554 12.6144 115.114 12.0053 115.557 11.3098Z" fill="#00B2FF"/>
<rect x="0.511475" y="1.49658" width="30.0606" height="30.0606" rx="3.5" stroke="#D9D9D9"/>
<rect x="46.481" y="1.49658" width="30.0606" height="30.0606" rx="3.5" stroke="#D9D9D9"/>
<rect x="92.4512" y="1.49658" width="30.0606" height="30.0606" rx="3.5" stroke="#D9D9D9"/>
</svg>
