<svg width="169" height="180" viewBox="0 0 169 180" fill="none" xmlns="http://www.w3.org/2000/svg">
<g filter="url(#filter0_d_92_4)">
<rect x="28" y="20" width="113" height="124" rx="5" fill="white"/>
</g>
<path d="M56.0383 96.44C56.7956 96.44 57.4463 96.5733 57.9903 96.84C58.5449 97.1067 58.9769 97.4853 59.2863 97.976C59.5956 98.4667 59.7503 99.0587 59.7503 99.752C59.7503 100.435 59.5956 101.027 59.2863 101.528C58.9769 102.019 58.5449 102.397 57.9903 102.664C57.4463 102.931 56.7956 103.064 56.0383 103.064H53.6863V107H51.9743V96.44H56.0383ZM55.7663 101.592C56.5236 101.592 57.0783 101.437 57.4303 101.128C57.7929 100.808 57.9743 100.349 57.9743 99.752C57.9743 99.144 57.7929 98.6853 57.4303 98.376C57.0783 98.056 56.5236 97.896 55.7663 97.896H53.6863V101.592H55.7663ZM66.3895 101.864C66.3895 101.331 66.2402 100.92 65.9415 100.632C65.6535 100.333 65.2535 100.184 64.7415 100.184C64.2615 100.184 63.8508 100.296 63.5095 100.52C63.1682 100.744 62.9175 101.107 62.7575 101.608L61.3175 101C61.5202 100.349 61.9148 99.8267 62.5015 99.432C63.0988 99.0373 63.8668 98.84 64.8055 98.84C65.4455 98.84 66.0108 98.9467 66.5015 99.16C66.9922 99.3627 67.3762 99.672 67.6535 100.088C67.9415 100.504 68.0855 101.037 68.0855 101.688V105.256C68.0855 105.651 68.2828 105.848 68.6775 105.848C68.8695 105.848 69.0562 105.821 69.2375 105.768L69.1415 106.952C68.8962 107.069 68.5868 107.128 68.2135 107.128C67.8722 107.128 67.5628 107.069 67.2855 106.952C67.0188 106.824 66.8055 106.637 66.6455 106.392C66.4962 106.136 66.4215 105.821 66.4215 105.448V105.336L66.7735 105.32C66.6775 105.736 66.4802 106.083 66.1815 106.36C65.8828 106.627 65.5362 106.829 65.1415 106.968C64.7468 107.096 64.3468 107.16 63.9415 107.16C63.4402 107.16 62.9868 107.08 62.5815 106.92C62.1868 106.76 61.8722 106.52 61.6375 106.2C61.4135 105.869 61.3015 105.464 61.3015 104.984C61.3015 104.387 61.4935 103.896 61.8775 103.512C62.2722 103.128 62.8268 102.867 63.5415 102.728L66.6455 102.12L66.6295 103.32L64.3735 103.784C63.9255 103.869 63.5895 103.992 63.3655 104.152C63.1415 104.312 63.0295 104.547 63.0295 104.856C63.0295 105.155 63.1415 105.395 63.3655 105.576C63.6002 105.747 63.9095 105.832 64.2935 105.832C64.5602 105.832 64.8162 105.8 65.0615 105.736C65.3175 105.672 65.5468 105.571 65.7495 105.432C65.9522 105.283 66.1068 105.096 66.2135 104.872C66.3308 104.637 66.3895 104.36 66.3895 104.04V101.864ZM77.4301 99L73.9261 107.944C73.6915 108.563 73.4355 109.053 73.1581 109.416C72.8915 109.779 72.5821 110.04 72.2301 110.2C71.8781 110.36 71.4675 110.44 70.9981 110.44C70.6141 110.44 70.2568 110.387 69.9261 110.28C69.6061 110.184 69.3235 110.051 69.0781 109.88L69.4941 108.552C69.6968 108.723 69.9101 108.851 70.1341 108.936C70.3688 109.021 70.6195 109.064 70.8861 109.064C71.1741 109.064 71.4301 108.984 71.6541 108.824C71.8888 108.675 72.0968 108.371 72.2781 107.912L72.6301 107.048L71.7821 105.064L69.2861 99H71.2061L72.9821 104.024L73.4461 105.528L73.9741 103.88L75.6541 99H77.4301ZM78.8905 107V99H80.4105L80.4905 100.344C80.7678 99.832 81.1358 99.4533 81.5945 99.208C82.0638 98.9627 82.5598 98.84 83.0825 98.84C83.6585 98.84 84.1865 98.9733 84.6665 99.24C85.1572 99.496 85.5252 99.8853 85.7705 100.408C85.9412 100.056 86.1758 99.7627 86.4745 99.528C86.7732 99.2933 87.1038 99.1227 87.4665 99.016C87.8292 98.8987 88.1865 98.84 88.5385 98.84C89.0505 98.84 89.5305 98.9467 89.9785 99.16C90.4265 99.3733 90.7892 99.6987 91.0665 100.136C91.3438 100.573 91.4825 101.133 91.4825 101.816V107H89.7705V102.088C89.7705 101.437 89.6158 100.968 89.3065 100.68C88.9972 100.392 88.6025 100.248 88.1225 100.248C87.7492 100.248 87.4025 100.339 87.0825 100.52C86.7732 100.701 86.5225 100.973 86.3305 101.336C86.1385 101.688 86.0425 102.125 86.0425 102.648V107H84.3305V102.088C84.3305 101.437 84.1758 100.968 83.8665 100.68C83.5572 100.392 83.1625 100.248 82.6825 100.248C82.3625 100.248 82.0425 100.333 81.7225 100.504C81.4025 100.675 81.1358 100.941 80.9225 101.304C80.7092 101.667 80.6025 102.147 80.6025 102.744V107H78.8905ZM97.598 107.16C96.798 107.16 96.094 106.995 95.486 106.664C94.878 106.333 94.4033 105.859 94.062 105.24C93.7313 104.611 93.566 103.864 93.566 103C93.566 102.136 93.7313 101.395 94.062 100.776C94.4033 100.147 94.8727 99.6667 95.47 99.336C96.0673 99.0053 96.7447 98.84 97.502 98.84C98.2807 98.84 98.942 99 99.486 99.32C100.03 99.64 100.446 100.077 100.734 100.632C101.022 101.187 101.166 101.816 101.166 102.52C101.166 102.712 101.161 102.893 101.15 103.064C101.139 103.235 101.123 103.384 101.102 103.512H94.67V102.2H100.35L99.502 102.456C99.502 101.731 99.3207 101.176 98.958 100.792C98.5953 100.397 98.0993 100.2 97.47 100.2C97.0113 100.2 96.6113 100.307 96.27 100.52C95.9287 100.733 95.6673 101.053 95.486 101.48C95.3047 101.896 95.214 102.408 95.214 103.016C95.214 103.613 95.31 104.12 95.502 104.536C95.694 104.952 95.966 105.267 96.318 105.48C96.67 105.693 97.086 105.8 97.566 105.8C98.0993 105.8 98.5313 105.699 98.862 105.496C99.1927 105.293 99.454 105.011 99.646 104.648L101.006 105.288C100.814 105.672 100.553 106.008 100.222 106.296C99.902 106.573 99.518 106.787 99.07 106.936C98.622 107.085 98.1313 107.16 97.598 107.16ZM103.328 107V99H104.848L104.96 101.08L104.736 100.856C104.885 100.397 105.099 100.019 105.376 99.72C105.664 99.4107 106 99.1867 106.384 99.048C106.779 98.9093 107.195 98.84 107.632 98.84C108.197 98.84 108.704 98.952 109.152 99.176C109.611 99.3893 109.973 99.7147 110.24 100.152C110.507 100.589 110.64 101.144 110.64 101.816V107H108.928V102.344C108.928 101.555 108.763 101.011 108.432 100.712C108.112 100.403 107.707 100.248 107.216 100.248C106.864 100.248 106.523 100.333 106.192 100.504C105.861 100.664 105.584 100.925 105.36 101.288C105.147 101.651 105.04 102.136 105.04 102.744V107H103.328ZM115.477 96.648V104.6C115.477 104.995 115.578 105.283 115.781 105.464C115.994 105.645 116.277 105.736 116.629 105.736C116.917 105.736 117.167 105.693 117.381 105.608C117.594 105.512 117.791 105.384 117.973 105.224L118.357 106.472C118.111 106.685 117.807 106.856 117.445 106.984C117.093 107.101 116.698 107.16 116.261 107.16C115.802 107.16 115.381 107.085 114.997 106.936C114.613 106.787 114.314 106.547 114.101 106.216C113.887 105.875 113.775 105.432 113.765 104.888V97.128L115.477 96.648ZM118.229 99V100.344H112.229V99H118.229Z" fill="#101828"/>
<path d="M59.1182 116.9C59.5915 116.9 60.0082 117.003 60.3682 117.21C60.7348 117.417 61.0215 117.717 61.2282 118.11C61.4348 118.497 61.5382 118.96 61.5382 119.5C61.5382 120.04 61.4348 120.507 61.2282 120.9C61.0215 121.287 60.7348 121.583 60.3682 121.79C60.0082 121.997 59.5915 122.1 59.1182 122.1C58.6515 122.1 58.2348 121.997 57.8682 121.79C57.5015 121.583 57.2148 121.287 57.0082 120.9C56.8015 120.507 56.6982 120.04 56.6982 119.5C56.6982 118.96 56.8015 118.497 57.0082 118.11C57.2148 117.717 57.5015 117.417 57.8682 117.21C58.2348 117.003 58.6515 116.9 59.1182 116.9ZM59.1182 117.59C58.7782 117.59 58.4882 117.667 58.2482 117.82C58.0082 117.973 57.8215 118.193 57.6882 118.48C57.5615 118.76 57.4982 119.1 57.4982 119.5C57.4982 119.893 57.5615 120.233 57.6882 120.52C57.8215 120.807 58.0082 121.027 58.2482 121.18C58.4882 121.333 58.7782 121.41 59.1182 121.41C59.4582 121.41 59.7482 121.333 59.9882 121.18C60.2282 121.027 60.4115 120.807 60.5382 120.52C60.6715 120.233 60.7382 119.893 60.7382 119.5C60.7382 119.1 60.6715 118.76 60.5382 118.48C60.4115 118.193 60.2282 117.973 59.9882 117.82C59.7482 117.667 59.4582 117.59 59.1182 117.59ZM63.0443 122V117H63.7443L63.8143 118.12L63.6843 118.01C63.7909 117.743 63.9343 117.53 64.1143 117.37C64.2943 117.203 64.5009 117.083 64.7343 117.01C64.9743 116.937 65.2209 116.9 65.4743 116.9C65.8343 116.9 66.1609 116.97 66.4543 117.11C66.7476 117.243 66.9809 117.45 67.1543 117.73C67.3343 118.01 67.4243 118.367 67.4243 118.8V122H66.6243V119.08C66.6243 118.527 66.5043 118.143 66.2643 117.93C66.0309 117.71 65.7409 117.6 65.3943 117.6C65.1543 117.6 64.9143 117.657 64.6743 117.77C64.4343 117.883 64.2343 118.067 64.0743 118.32C63.9209 118.573 63.8443 118.913 63.8443 119.34V122H63.0443ZM74.7139 116.9C75.1872 116.9 75.6039 117.003 75.9639 117.21C76.3305 117.417 76.6172 117.717 76.8239 118.11C77.0305 118.497 77.1339 118.96 77.1339 119.5C77.1339 120.04 77.0305 120.507 76.8239 120.9C76.6172 121.287 76.3305 121.583 75.9639 121.79C75.6039 121.997 75.1872 122.1 74.7139 122.1C74.2472 122.1 73.8305 121.997 73.4639 121.79C73.0972 121.583 72.8105 121.287 72.6039 120.9C72.3972 120.507 72.2939 120.04 72.2939 119.5C72.2939 118.96 72.3972 118.497 72.6039 118.11C72.8105 117.717 73.0972 117.417 73.4639 117.21C73.8305 117.003 74.2472 116.9 74.7139 116.9ZM74.7139 117.59C74.3739 117.59 74.0839 117.667 73.8439 117.82C73.6039 117.973 73.4172 118.193 73.2839 118.48C73.1572 118.76 73.0939 119.1 73.0939 119.5C73.0939 119.893 73.1572 120.233 73.2839 120.52C73.4172 120.807 73.6039 121.027 73.8439 121.18C74.0839 121.333 74.3739 121.41 74.7139 121.41C75.0539 121.41 75.3439 121.333 75.5839 121.18C75.8239 121.027 76.0072 120.807 76.1339 120.52C76.2672 120.233 76.3339 119.893 76.3339 119.5C76.3339 119.1 76.2672 118.76 76.1339 118.48C76.0072 118.193 75.8239 117.973 75.5839 117.82C75.3439 117.667 75.0539 117.59 74.7139 117.59ZM78.64 122V117H79.34L79.41 118.12L79.28 118.01C79.3866 117.743 79.53 117.53 79.71 117.37C79.89 117.203 80.0966 117.083 80.33 117.01C80.57 116.937 80.8166 116.9 81.07 116.9C81.43 116.9 81.7566 116.97 82.05 117.11C82.3433 117.243 82.5766 117.45 82.75 117.73C82.93 118.01 83.02 118.367 83.02 118.8V122H82.22V119.08C82.22 118.527 82.1 118.143 81.86 117.93C81.6266 117.71 81.3366 117.6 80.99 117.6C80.75 117.6 80.51 117.657 80.27 117.77C80.03 117.883 79.83 118.067 79.67 118.32C79.5166 118.573 79.44 118.913 79.44 119.34V122H78.64ZM85.943 115.58V120.62C85.943 120.867 86.013 121.05 86.153 121.17C86.293 121.29 86.473 121.35 86.693 121.35C86.8863 121.35 87.053 121.317 87.193 121.25C87.333 121.183 87.4597 121.093 87.573 120.98L87.853 121.65C87.6997 121.79 87.5163 121.9 87.303 121.98C87.0963 122.06 86.8563 122.1 86.583 122.1C86.3297 122.1 86.093 122.057 85.873 121.97C85.653 121.877 85.4763 121.733 85.343 121.54C85.2163 121.34 85.1497 121.08 85.143 120.76V115.8L85.943 115.58ZM87.763 117V117.69H84.143V117H87.763ZM91.0425 122.1C90.5691 122.1 90.1458 121.997 89.7725 121.79C89.4058 121.583 89.1191 121.287 88.9125 120.9C88.7058 120.507 88.6025 120.04 88.6025 119.5C88.6025 118.96 88.7058 118.497 88.9125 118.11C89.1191 117.717 89.4025 117.417 89.7625 117.21C90.1225 117.003 90.5325 116.9 90.9925 116.9C91.4591 116.9 91.8558 117 92.1825 117.2C92.5158 117.4 92.7691 117.673 92.9425 118.02C93.1158 118.36 93.2025 118.743 93.2025 119.17C93.2025 119.283 93.1991 119.387 93.1925 119.48C93.1858 119.573 93.1758 119.657 93.1625 119.73H89.1225V119.02H92.8125L92.4025 119.1C92.4025 118.62 92.2691 118.25 92.0025 117.99C91.7425 117.73 91.3991 117.6 90.9725 117.6C90.6458 117.6 90.3625 117.677 90.1225 117.83C89.8891 117.977 89.7058 118.193 89.5725 118.48C89.4458 118.76 89.3825 119.1 89.3825 119.5C89.3825 119.893 89.4491 120.233 89.5825 120.52C89.7158 120.807 89.9025 121.027 90.1425 121.18C90.3891 121.327 90.6825 121.4 91.0225 121.4C91.3891 121.4 91.6858 121.33 91.9125 121.19C92.1458 121.05 92.3325 120.86 92.4725 120.62L93.1025 120.99C92.9758 121.217 92.8125 121.413 92.6125 121.58C92.4191 121.747 92.1891 121.877 91.9225 121.97C91.6625 122.057 91.3691 122.1 91.0425 122.1ZM94.7239 122V117H95.3739L95.4839 117.82C95.6239 117.513 95.8273 117.283 96.0939 117.13C96.3673 116.977 96.6973 116.9 97.0839 116.9C97.1706 116.9 97.2639 116.907 97.3639 116.92C97.4706 116.933 97.5606 116.96 97.6339 117L97.4939 117.73C97.4206 117.703 97.3406 117.683 97.2539 117.67C97.1673 117.657 97.0439 117.65 96.8839 117.65C96.6773 117.65 96.4673 117.71 96.2539 117.83C96.0473 117.95 95.8739 118.133 95.7339 118.38C95.5939 118.62 95.5239 118.927 95.5239 119.3V122H94.7239ZM98.806 122V117H99.506L99.576 118.12L99.446 118.01C99.5526 117.743 99.696 117.53 99.876 117.37C100.056 117.203 100.263 117.083 100.496 117.01C100.736 116.937 100.983 116.9 101.236 116.9C101.596 116.9 101.923 116.97 102.216 117.11C102.509 117.243 102.743 117.45 102.916 117.73C103.096 118.01 103.186 118.367 103.186 118.8V122H102.386V119.08C102.386 118.527 102.266 118.143 102.026 117.93C101.793 117.71 101.503 117.6 101.156 117.6C100.916 117.6 100.676 117.657 100.436 117.77C100.196 117.883 99.996 118.067 99.836 118.32C99.6826 118.573 99.606 118.913 99.606 119.34V122H98.806ZM107.087 122.1C106.614 122.1 106.191 121.997 105.817 121.79C105.451 121.583 105.164 121.287 104.957 120.9C104.751 120.507 104.647 120.04 104.647 119.5C104.647 118.96 104.751 118.497 104.957 118.11C105.164 117.717 105.447 117.417 105.807 117.21C106.167 117.003 106.577 116.9 107.037 116.9C107.504 116.9 107.901 117 108.227 117.2C108.561 117.4 108.814 117.673 108.987 118.02C109.161 118.36 109.247 118.743 109.247 119.17C109.247 119.283 109.244 119.387 109.237 119.48C109.231 119.573 109.221 119.657 109.207 119.73H105.167V119.02H108.857L108.447 119.1C108.447 118.62 108.314 118.25 108.047 117.99C107.787 117.73 107.444 117.6 107.017 117.6C106.691 117.6 106.407 117.677 106.167 117.83C105.934 117.977 105.751 118.193 105.617 118.48C105.491 118.76 105.427 119.1 105.427 119.5C105.427 119.893 105.494 120.233 105.627 120.52C105.761 120.807 105.947 121.027 106.187 121.18C106.434 121.327 106.727 121.4 107.067 121.4C107.434 121.4 107.731 121.33 107.957 121.19C108.191 121.05 108.377 120.86 108.517 120.62L109.147 120.99C109.021 121.217 108.857 121.413 108.657 121.58C108.464 121.747 108.234 121.877 107.967 121.97C107.707 122.057 107.414 122.1 107.087 122.1ZM111.802 115.58V120.62C111.802 120.867 111.872 121.05 112.012 121.17C112.152 121.29 112.332 121.35 112.552 121.35C112.746 121.35 112.912 121.317 113.052 121.25C113.192 121.183 113.319 121.093 113.432 120.98L113.712 121.65C113.559 121.79 113.376 121.9 113.162 121.98C112.956 122.06 112.716 122.1 112.442 122.1C112.189 122.1 111.952 122.057 111.732 121.97C111.512 121.877 111.336 121.733 111.202 121.54C111.076 121.34 111.009 121.08 111.002 120.76V115.8L111.802 115.58ZM113.622 117V117.69H110.002V117H113.622Z" fill="#565656"/>
<g filter="url(#filter1_d_92_4)">
<circle cx="85" cy="58" r="19" fill="#C9D6E9" fill-opacity="0.87"/>
<path d="M79.1697 61.7493C79.1697 61.4661 79.2823 61.1944 79.4825 60.9942C79.6828 60.7939 79.9545 60.6815 80.2376 60.6815C80.4254 60.6823 80.6096 60.7327 80.7716 60.8273C80.9346 60.9214 81.0698 61.0569 81.1635 61.2201C81.2573 61.3833 81.3064 61.5682 81.3055 61.7564C81.3055 61.8065 81.302 61.8564 81.2949 61.9059C81.2468 62.2348 81.0498 62.5229 80.7609 62.6873C80.5989 62.782 80.4146 62.8319 80.2269 62.8315C79.9432 62.8286 79.6721 62.7129 79.4736 62.5099C79.2753 62.3069 79.1659 62.0332 79.1698 61.7493L79.1697 61.7493ZM92.9423 54.5122H88.7951C88.6764 54.784 88.5233 55.0395 88.3394 55.2722C87.5699 56.258 86.3386 56.7664 85.0979 56.6106C83.857 56.4548 82.7896 55.6577 82.2878 54.5122H78.1462C77.8426 54.5127 77.5516 54.6333 77.3369 54.8479C77.1221 55.0623 77.001 55.353 77 55.6566V56.6907H94.0869V55.6566C94.0865 55.3533 93.9658 55.0624 93.7512 54.8479C93.5367 54.6335 93.2459 54.5127 92.9425 54.5122L92.9423 54.5122ZM81.8307 61.9878C81.8307 62.0394 81.8129 62.0928 81.8004 62.1444V62.1443C81.7995 62.1538 81.7995 62.1634 81.8004 62.1728C81.7833 62.2332 81.7631 62.2926 81.7399 62.3508C81.7341 62.3659 81.7276 62.3808 81.7203 62.3953C81.7008 62.4398 81.6794 62.4843 81.6545 62.5287L81.635 62.5661C81.6029 62.6195 81.5691 62.6694 81.5335 62.7174L81.5069 62.7495C81.4891 62.7726 81.473 62.7958 81.4535 62.8171H81.4533C81.499 62.8199 81.5447 62.8199 81.5903 62.8171C81.9745 62.8171 82.3293 62.6121 82.5213 62.2796C82.7135 61.9469 82.7135 61.5372 82.5213 61.2045C82.3293 60.872 81.9745 60.667 81.5903 60.667C81.5447 60.6643 81.499 60.6643 81.4533 60.667C81.4711 60.6865 81.4872 60.708 81.5032 60.7293L81.5353 60.7685H81.5351C81.5705 60.8158 81.6032 60.8653 81.6331 60.9162C81.6331 60.9304 81.649 60.9448 81.6561 60.959C81.6799 61.0017 81.7012 61.0445 81.7202 61.0871C81.7202 61.1031 81.7344 61.1174 81.7397 61.1334H81.7399C81.7636 61.1914 81.7838 61.2508 81.8004 61.3113C81.7995 61.322 81.7995 61.3328 81.8004 61.3434C81.8132 61.3944 81.8233 61.4461 81.8307 61.4983C81.8315 61.5154 81.8315 61.5327 81.8307 61.5498C81.8472 61.675 81.8472 61.8019 81.8307 61.9271C81.8318 61.9473 81.8318 61.9675 81.8307 61.9878L81.8307 61.9878ZM77 58.3587H94.0869V57.2232H77V58.3587ZM77 58.8927H94.0869V64.2216C94.0879 64.5257 93.9677 64.8177 93.753 65.0331C93.5383 65.2484 93.2466 65.3696 92.9424 65.3696H78.1462C77.842 65.3696 77.5501 65.2486 77.3352 65.0332C77.1201 64.8178 76.9995 64.5258 77 64.2216L77 58.8927ZM85.0381 61.0784C85.0381 61.2257 85.1576 61.3454 85.3051 61.3454H92.1859C92.3334 61.3454 92.4529 61.2257 92.4529 61.0784C92.4529 60.9309 92.3334 60.8114 92.1859 60.8114H85.3051C85.1576 60.8114 85.0381 60.9309 85.0381 61.0784ZM85.0381 62.4204V62.4203C85.0381 62.5678 85.1576 62.6873 85.3051 62.6873H92.1859C92.3334 62.6873 92.4529 62.5678 92.4529 62.4203C92.4529 62.2729 92.3334 62.1534 92.1859 62.1534H85.3051C85.1576 62.1534 85.0381 62.2729 85.0381 62.4203V62.4204ZM78.6306 61.7495V61.7494C78.6306 62.1742 78.7994 62.5816 79.0997 62.882C79.4002 63.1825 79.8076 63.3513 80.2324 63.3513C80.4682 63.3547 80.7017 63.3056 80.916 63.2071C81.1252 63.3061 81.3537 63.3577 81.5852 63.3584C82.16 63.3584 82.6913 63.0517 82.9786 62.5539C83.2661 62.0561 83.2661 61.4427 82.9786 60.9448C82.6912 60.447 82.16 60.1404 81.5852 60.1404C81.3531 60.1411 81.1241 60.1927 80.9142 60.2916C80.705 60.1926 80.4765 60.141 80.245 60.1404C79.8177 60.1385 79.4073 60.3073 79.1051 60.6095C78.803 60.9116 78.634 61.322 78.636 61.7494L78.6306 61.7495ZM88.5587 53.0884C88.5331 54.1479 87.9529 55.116 87.0309 55.6384C86.109 56.1608 84.9802 56.1608 84.0582 55.6384C83.1363 55.1161 82.5561 54.1479 82.5304 53.0884C82.5106 52.2762 82.8194 51.4905 83.3869 50.9091C83.9543 50.3278 84.7322 50 85.5447 50C86.357 50 87.1349 50.3278 87.7023 50.9091C88.2698 51.4905 88.5786 52.2762 88.5588 53.0884H88.5587ZM86.9426 52.2927H86.9427C86.8928 52.2423 86.8248 52.2139 86.754 52.2139C86.6831 52.2139 86.6152 52.2423 86.5654 52.2927L85.1876 53.6669L84.5238 53.003V53.0029C84.4192 52.8987 84.2498 52.8991 84.1456 53.0039C84.0414 53.1085 84.0418 53.2778 84.1465 53.382L84.9991 54.2328C85.0485 54.2838 85.1168 54.3121 85.1877 54.3111C85.2586 54.3115 85.3266 54.2832 85.3764 54.2328L86.9427 52.6665C87.0459 52.5619 87.0459 52.3938 86.9427 52.2892L86.9426 52.2927Z" fill="#4C6487"/>
</g>
<defs>
<filter id="filter0_d_92_4" x="0" y="0" width="169" height="180" filterUnits="userSpaceOnUse" color-interpolation-filters="sRGB">
<feFlood flood-opacity="0" result="BackgroundImageFix"/>
<feColorMatrix in="SourceAlpha" type="matrix" values="0 0 0 0 0 0 0 0 0 0 0 0 0 0 0 0 0 0 127 0" result="hardAlpha"/>
<feOffset dy="8"/>
<feGaussianBlur stdDeviation="14"/>
<feComposite in2="hardAlpha" operator="out"/>
<feColorMatrix type="matrix" values="0 0 0 0 0.329167 0 0 0 0 0.329167 0 0 0 0 0.329167 0 0 0 0.1 0"/>
<feBlend mode="normal" in2="BackgroundImageFix" result="effect1_dropShadow_92_4"/>
<feBlend mode="normal" in="SourceGraphic" in2="effect1_dropShadow_92_4" result="shape"/>
</filter>
<filter id="filter1_d_92_4" x="49" y="24" width="72" height="72" filterUnits="userSpaceOnUse" color-interpolation-filters="sRGB">
<feFlood flood-opacity="0" result="BackgroundImageFix"/>
<feColorMatrix in="SourceAlpha" type="matrix" values="0 0 0 0 0 0 0 0 0 0 0 0 0 0 0 0 0 0 127 0" result="hardAlpha"/>
<feOffset dy="2"/>
<feGaussianBlur stdDeviation="8.5"/>
<feComposite in2="hardAlpha" operator="out"/>
<feColorMatrix type="matrix" values="0 0 0 0 0.175 0 0 0 0 0.175 0 0 0 0 0.175 0 0 0 0.12 0"/>
<feBlend mode="normal" in2="BackgroundImageFix" result="effect1_dropShadow_92_4"/>
<feBlend mode="normal" in="SourceGraphic" in2="effect1_dropShadow_92_4" result="shape"/>
</filter>
</defs>
</svg>
