<svg width="946" height="92" viewBox="0 0 946 92" fill="none" xmlns="http://www.w3.org/2000/svg">
<line x1="214.75" y1="19" x2="214.75" y2="73" stroke="#C4C4C4" stroke-width="1.5"/>
<line x1="455.75" y1="19" x2="455.75" y2="73" stroke="#C4C4C4" stroke-width="1.5"/>
<line x1="759.75" y1="19" x2="759.75" y2="73" stroke="#C4C4C4" stroke-width="1.5"/>
<path d="M25.8408 20.29C25.8408 21.9339 25.499 23.3581 24.8154 24.5625C24.1318 25.7669 23.2041 26.7516 22.0322 27.5166C20.8766 28.2816 19.5745 28.8431 18.126 29.2012V29.3477C20.9906 29.7057 23.1634 30.5846 24.6445 31.9844C26.1419 33.3841 26.8906 35.2559 26.8906 37.5996C26.8906 39.6829 26.3779 41.5465 25.3525 43.1904C24.3434 44.8343 22.7809 46.1283 20.665 47.0723C18.5492 48.0163 15.8229 48.4883 12.4863 48.4883C10.5169 48.4883 8.67773 48.3255 6.96875 48C5.27604 47.6908 3.68099 47.2106 2.18359 46.5596V40.1387C3.71354 40.9199 5.31673 41.514 6.99316 41.9209C8.6696 42.3115 10.2321 42.5068 11.6807 42.5068C14.3825 42.5068 16.2705 42.043 17.3447 41.1152C18.4352 40.1712 18.9805 38.8529 18.9805 37.1602C18.9805 36.1673 18.7282 35.3291 18.2236 34.6455C17.7191 33.9619 16.8402 33.4411 15.5869 33.083C14.3499 32.7249 12.6165 32.5459 10.3867 32.5459H7.67676V26.7598H10.4355C12.6328 26.7598 14.3011 26.5563 15.4404 26.1494C16.596 25.7262 17.3773 25.1566 17.7842 24.4404C18.2074 23.708 18.4189 22.8779 18.4189 21.9502C18.4189 20.6807 18.0283 19.6878 17.2471 18.9717C16.4658 18.2555 15.1637 17.8975 13.3408 17.8975C12.2015 17.8975 11.1598 18.0439 10.2158 18.3369C9.28809 18.6136 8.44987 18.9554 7.70117 19.3623C6.95247 19.7529 6.29329 20.1354 5.72363 20.5098L2.23242 15.3096C3.63216 14.3005 5.2679 13.4622 7.13965 12.7949C9.02767 12.1276 11.2738 11.7939 13.8779 11.7939C17.5563 11.7939 20.4697 12.5345 22.6182 14.0156C24.7666 15.4967 25.8408 17.5882 25.8408 20.29ZM55.6504 30.1533C55.6504 33.0342 55.4225 35.6058 54.9668 37.8682C54.5273 40.1305 53.8112 42.0511 52.8184 43.6299C51.8418 45.2087 50.556 46.4131 48.9609 47.2432C47.3659 48.0732 45.429 48.4883 43.1504 48.4883C40.2858 48.4883 37.9339 47.764 36.0947 46.3154C34.2555 44.8506 32.8965 42.751 32.0176 40.0166C31.1387 37.266 30.6992 33.9782 30.6992 30.1533C30.6992 26.2959 31.098 23 31.8955 20.2656C32.7093 17.515 34.0277 15.4072 35.8506 13.9424C37.6735 12.4775 40.1068 11.7451 43.1504 11.7451C45.9987 11.7451 48.3424 12.4775 50.1816 13.9424C52.0371 15.391 53.4124 17.4906 54.3076 20.2412C55.2028 22.9756 55.6504 26.2796 55.6504 30.1533ZM38.1943 30.1533C38.1943 32.8714 38.3408 35.1419 38.6338 36.9648C38.943 38.7715 39.4557 40.1305 40.1719 41.042C40.888 41.9535 41.8809 42.4092 43.1504 42.4092C44.4036 42.4092 45.3883 41.9616 46.1045 41.0664C46.8369 40.1549 47.3577 38.7959 47.667 36.9893C47.9762 35.1663 48.1309 32.8877 48.1309 30.1533C48.1309 27.4352 47.9762 25.1647 47.667 23.3418C47.3577 21.5189 46.8369 20.1517 46.1045 19.2402C45.3883 18.3125 44.4036 17.8486 43.1504 17.8486C41.8809 17.8486 40.888 18.3125 40.1719 19.2402C39.4557 20.1517 38.943 21.5189 38.6338 23.3418C38.3408 25.1647 38.1943 27.4352 38.1943 30.1533ZM84.459 48H59.5078V42.751L68.4678 33.6934C70.2744 31.8379 71.723 30.2917 72.8135 29.0547C73.9202 27.8014 74.7178 26.6621 75.2061 25.6367C75.7106 24.6113 75.9629 23.5127 75.9629 22.3408C75.9629 20.9248 75.5641 19.8669 74.7666 19.167C73.9854 18.4508 72.9355 18.0928 71.6172 18.0928C70.2337 18.0928 68.891 18.4102 67.5889 19.0449C66.2868 19.6797 64.9277 20.583 63.5117 21.7549L59.4102 16.8965C60.4355 16.0176 61.5179 15.1875 62.6572 14.4062C63.8128 13.625 65.1475 12.9984 66.6611 12.5264C68.1911 12.0381 70.0221 11.7939 72.1543 11.7939C74.498 11.7939 76.5081 12.2171 78.1846 13.0635C79.8773 13.9098 81.1794 15.0654 82.0908 16.5303C83.0023 17.9788 83.458 19.6227 83.458 21.4619C83.458 23.4313 83.0674 25.2298 82.2861 26.8574C81.5049 28.485 80.3656 30.0964 78.8682 31.6914C77.387 33.2865 75.5967 35.0524 73.4971 36.9893L68.9072 41.3105V41.6523H84.459V48ZM116.051 27.7119H125.499V33.0586H116.051V42.458H110.704V33.0586H101.256V27.7119H110.704V18.1904H116.051V27.7119Z" fill="#596B86"/>
<path d="M328.34 48H303.389V42.751L312.349 33.6934C314.155 31.8379 315.604 30.2917 316.694 29.0547C317.801 27.8014 318.599 26.6621 319.087 25.6367C319.591 24.6113 319.844 23.5127 319.844 22.3408C319.844 20.9248 319.445 19.8669 318.647 19.167C317.866 18.4508 316.816 18.0928 315.498 18.0928C314.115 18.0928 312.772 18.4102 311.47 19.0449C310.168 19.6797 308.809 20.583 307.393 21.7549L303.291 16.8965C304.316 16.0176 305.399 15.1875 306.538 14.4062C307.694 13.625 309.028 12.9984 310.542 12.5264C312.072 12.0381 313.903 11.7939 316.035 11.7939C318.379 11.7939 320.389 12.2171 322.065 13.0635C323.758 13.9098 325.06 15.0654 325.972 16.5303C326.883 17.9788 327.339 19.6227 327.339 21.4619C327.339 23.4313 326.948 25.2298 326.167 26.8574C325.386 28.485 324.246 30.0964 322.749 31.6914C321.268 33.2865 319.478 35.0524 317.378 36.9893L312.788 41.3105V41.6523H328.34V48ZM344.99 25.1973C347.171 25.1973 349.108 25.6123 350.801 26.4424C352.51 27.2725 353.853 28.4932 354.829 30.1045C355.806 31.7158 356.294 33.7015 356.294 36.0615C356.294 38.6331 355.757 40.8548 354.683 42.7266C353.625 44.582 352.038 46.0062 349.922 46.999C347.822 47.9919 345.202 48.4883 342.061 48.4883C340.189 48.4883 338.423 48.3255 336.763 48C335.119 47.6908 333.678 47.2106 332.441 46.5596V40.041C333.678 40.6921 335.16 41.2454 336.885 41.7012C338.626 42.1406 340.262 42.3604 341.792 42.3604C343.289 42.3604 344.551 42.165 345.576 41.7744C346.602 41.3675 347.375 40.749 347.896 39.9189C348.433 39.0726 348.701 37.9984 348.701 36.6963C348.701 34.9548 348.115 33.6201 346.943 32.6924C345.771 31.7646 343.973 31.3008 341.548 31.3008C340.62 31.3008 339.652 31.3903 338.643 31.5693C337.65 31.7484 336.82 31.9274 336.152 32.1064L333.149 30.4951L334.492 12.3066H353.853V18.7031H341.108L340.449 25.71C341.003 25.596 341.605 25.4821 342.256 25.3682C342.907 25.2542 343.818 25.1973 344.99 25.1973Z" fill="#596B86"/>
<path d="M566.764 25.1973C568.945 25.1973 570.882 25.6123 572.574 26.4424C574.283 27.2725 575.626 28.4932 576.603 30.1045C577.579 31.7158 578.067 33.7015 578.067 36.0615C578.067 38.6331 577.53 40.8548 576.456 42.7266C575.398 44.582 573.811 46.0062 571.695 46.999C569.596 47.9919 566.975 48.4883 563.834 48.4883C561.962 48.4883 560.196 48.3255 558.536 48C556.892 47.6908 555.452 47.2106 554.215 46.5596V40.041C555.452 40.6921 556.933 41.2454 558.658 41.7012C560.4 42.1406 562.035 42.3604 563.565 42.3604C565.063 42.3604 566.324 42.165 567.35 41.7744C568.375 41.3675 569.148 40.749 569.669 39.9189C570.206 39.0726 570.475 37.9984 570.475 36.6963C570.475 34.9548 569.889 33.6201 568.717 32.6924C567.545 31.7646 565.746 31.3008 563.321 31.3008C562.394 31.3008 561.425 31.3903 560.416 31.5693C559.423 31.7484 558.593 31.9274 557.926 32.1064L554.923 30.4951L556.266 12.3066H575.626V18.7031H562.882L562.223 25.71C562.776 25.596 563.378 25.4821 564.029 25.3682C564.68 25.2542 565.592 25.1973 566.764 25.1973ZM601.041 48H593.497V27.3457C593.497 26.776 593.505 26.0762 593.521 25.2461C593.538 24.3997 593.562 23.5371 593.595 22.6582C593.627 21.763 593.66 20.9574 593.692 20.2412C593.513 20.4528 593.147 20.819 592.594 21.3398C592.057 21.8444 591.552 22.3001 591.08 22.707L586.979 26.0029L583.341 21.4619L594.84 12.3066H601.041V48ZM635.758 30.1533C635.758 33.0342 635.53 35.6058 635.074 37.8682C634.635 40.1305 633.919 42.0511 632.926 43.6299C631.949 45.2087 630.663 46.4131 629.068 47.2432C627.473 48.0732 625.536 48.4883 623.258 48.4883C620.393 48.4883 618.041 47.764 616.202 46.3154C614.363 44.8506 613.004 42.751 612.125 40.0166C611.246 37.266 610.807 33.9782 610.807 30.1533C610.807 26.2959 611.205 23 612.003 20.2656C612.817 17.515 614.135 15.4072 615.958 13.9424C617.781 12.4775 620.214 11.7451 623.258 11.7451C626.106 11.7451 628.45 12.4775 630.289 13.9424C632.145 15.391 633.52 17.4906 634.415 20.2412C635.31 22.9756 635.758 26.2796 635.758 30.1533ZM618.302 30.1533C618.302 32.8714 618.448 35.1419 618.741 36.9648C619.05 38.7715 619.563 40.1305 620.279 41.042C620.995 41.9535 621.988 42.4092 623.258 42.4092C624.511 42.4092 625.496 41.9616 626.212 41.0664C626.944 40.1549 627.465 38.7959 627.774 36.9893C628.084 35.1663 628.238 32.8877 628.238 30.1533C628.238 27.4352 628.084 25.1647 627.774 23.3418C627.465 21.5189 626.944 20.1517 626.212 19.2402C625.496 18.3125 624.511 17.8486 623.258 17.8486C621.988 17.8486 620.995 18.3125 620.279 19.2402C619.563 20.1517 619.05 21.5189 618.741 23.3418C618.448 25.1647 618.302 27.4352 618.302 30.1533ZM654.557 27.7119H664.005V33.0586H654.557V42.458H649.21V33.0586H639.762V27.7119H649.21V18.1904H654.557V27.7119Z" fill="#596B86"/>
<path d="M853.758 32.8389C853.758 30.7881 853.904 28.7617 854.197 26.7598C854.507 24.7415 855.035 22.8454 855.784 21.0713C856.533 19.2809 857.583 17.7021 858.934 16.335C860.285 14.9515 862.002 13.8691 864.085 13.0879C866.168 12.2904 868.691 11.8916 871.653 11.8916C872.353 11.8916 873.167 11.9242 874.095 11.9893C875.039 12.0381 875.82 12.1276 876.438 12.2578V18.2881C875.787 18.1416 875.088 18.0277 874.339 17.9463C873.606 17.8486 872.874 17.7998 872.142 17.7998C869.179 17.7998 866.884 18.2718 865.257 19.2158C863.646 20.1598 862.506 21.4701 861.839 23.1465C861.188 24.8066 860.805 26.7435 860.691 28.957H861.009C861.465 28.1595 862.034 27.4515 862.718 26.833C863.418 26.2145 864.264 25.7262 865.257 25.3682C866.25 24.9938 867.413 24.8066 868.748 24.8066C870.831 24.8066 872.638 25.2542 874.168 26.1494C875.698 27.0283 876.878 28.306 877.708 29.9824C878.538 31.6589 878.953 33.7015 878.953 36.1104C878.953 38.682 878.457 40.8955 877.464 42.751C876.471 44.6064 875.063 46.0306 873.24 47.0234C871.434 48 869.285 48.4883 866.795 48.4883C864.972 48.4883 863.271 48.179 861.692 47.5605C860.114 46.9258 858.73 45.9655 857.542 44.6797C856.354 43.3939 855.426 41.7744 854.759 39.8213C854.091 37.8519 853.758 35.5244 853.758 32.8389ZM866.648 42.458C868.13 42.458 869.334 41.9535 870.262 40.9443C871.189 39.9352 871.653 38.3564 871.653 36.208C871.653 34.4665 871.246 33.0993 870.433 32.1064C869.635 31.0973 868.423 30.5928 866.795 30.5928C865.688 30.5928 864.712 30.8451 863.865 31.3496C863.035 31.8379 862.392 32.4645 861.937 33.2295C861.481 33.9782 861.253 34.7513 861.253 35.5488C861.253 36.3789 861.367 37.2008 861.595 38.0146C861.823 38.8285 862.164 39.569 862.62 40.2363C863.076 40.9036 863.637 41.4408 864.305 41.8477C864.988 42.2546 865.77 42.458 866.648 42.458ZM895.604 25.1973C897.785 25.1973 899.721 25.6123 901.414 26.4424C903.123 27.2725 904.466 28.4932 905.442 30.1045C906.419 31.7158 906.907 33.7015 906.907 36.0615C906.907 38.6331 906.37 40.8548 905.296 42.7266C904.238 44.582 902.651 46.0062 900.535 46.999C898.436 47.9919 895.815 48.4883 892.674 48.4883C890.802 48.4883 889.036 48.3255 887.376 48C885.732 47.6908 884.292 47.2106 883.055 46.5596V40.041C884.292 40.6921 885.773 41.2454 887.498 41.7012C889.24 42.1406 890.875 42.3604 892.405 42.3604C893.903 42.3604 895.164 42.165 896.189 41.7744C897.215 41.3675 897.988 40.749 898.509 39.9189C899.046 39.0726 899.314 37.9984 899.314 36.6963C899.314 34.9548 898.729 33.6201 897.557 32.6924C896.385 31.7646 894.586 31.3008 892.161 31.3008C891.233 31.3008 890.265 31.3903 889.256 31.5693C888.263 31.7484 887.433 31.9274 886.766 32.1064L883.763 30.4951L885.105 12.3066H904.466V18.7031H891.722L891.062 25.71C891.616 25.596 892.218 25.4821 892.869 25.3682C893.52 25.2542 894.432 25.1973 895.604 25.1973Z" fill="#596B86"/>
<path d="M2.898 81.942V87H1.35V74.562H4.626C5.85 74.562 6.864 74.892 7.668 75.552C8.472 76.2 8.874 77.106 8.874 78.27C8.874 79.11 8.652 79.824 8.208 80.412C7.764 80.988 7.164 81.408 6.408 81.672C7.032 82.392 8.19 84.168 9.882 87H8.01C6.342 84.12 5.286 82.434 4.842 81.942H2.898ZM2.898 80.61H4.626C5.454 80.61 6.09 80.406 6.534 79.998C6.99 79.59 7.218 79.014 7.218 78.27C7.218 77.526 6.99 76.95 6.534 76.542C6.09 76.134 5.454 75.93 4.626 75.93H2.898V80.61ZM14.5493 79.746C14.0933 79.746 13.6973 79.848 13.3613 80.052C13.0373 80.256 12.7973 80.52 12.6413 80.844C12.3533 81.456 12.2093 82.11 12.2093 82.806C12.2093 84.966 12.9593 86.046 14.4593 86.046C14.9153 86.046 15.3053 85.944 15.6293 85.74C15.9533 85.536 16.1993 85.272 16.3673 84.948C16.6553 84.348 16.7993 83.694 16.7993 82.986C16.7993 80.826 16.0493 79.746 14.5493 79.746ZM14.5493 78.576C15.8813 78.576 16.8533 78.99 17.4653 79.818C18.0773 80.646 18.3833 81.726 18.3833 83.058C18.3833 84.018 18.1313 84.906 17.6273 85.722C17.3513 86.166 16.9373 86.526 16.3853 86.802C15.8333 87.078 15.1733 87.216 14.4053 87.216C13.0853 87.216 12.1253 86.82 11.5253 86.028C10.9253 85.236 10.6253 84.174 10.6253 82.842C10.6253 82.062 10.7453 81.402 10.9853 80.862C11.2373 80.322 11.5013 79.908 11.7773 79.62C12.0533 79.32 12.4313 79.074 12.9113 78.882C13.3913 78.678 13.9373 78.576 14.5493 78.576ZM24.1379 79.746C23.6819 79.746 23.2859 79.848 22.9499 80.052C22.6259 80.256 22.3859 80.52 22.2299 80.844C21.9419 81.456 21.7979 82.11 21.7979 82.806C21.7979 84.966 22.5479 86.046 24.0479 86.046C24.5039 86.046 24.8939 85.944 25.2179 85.74C25.5419 85.536 25.7879 85.272 25.9559 84.948C26.2439 84.348 26.3879 83.694 26.3879 82.986C26.3879 80.826 25.6379 79.746 24.1379 79.746ZM24.1379 78.576C25.4699 78.576 26.4419 78.99 27.0539 79.818C27.6659 80.646 27.9719 81.726 27.9719 83.058C27.9719 84.018 27.7199 84.906 27.2159 85.722C26.9399 86.166 26.5259 86.526 25.9739 86.802C25.4219 87.078 24.7619 87.216 23.9939 87.216C22.6739 87.216 21.7139 86.82 21.1139 86.028C20.5139 85.236 20.2139 84.174 20.2139 82.842C20.2139 82.062 20.3339 81.402 20.5739 80.862C20.8259 80.322 21.0899 79.908 21.3659 79.62C21.6419 79.32 22.0199 79.074 22.4999 78.882C22.9799 78.678 23.5259 78.576 24.1379 78.576ZM31.7824 79.728C32.6704 78.96 33.6544 78.576 34.7344 78.576C35.8144 78.576 36.5524 78.996 36.9484 79.836C37.8964 78.996 38.8924 78.576 39.9364 78.576C40.7044 78.576 41.3104 78.78 41.7544 79.188C42.2104 79.596 42.4384 80.13 42.4384 80.79V87H40.9084V80.862C40.9084 80.55 40.7944 80.31 40.5664 80.142C40.3384 79.974 40.0324 79.89 39.6484 79.89C38.8684 79.89 38.0344 80.208 37.1464 80.844V87H35.6164V80.862C35.6164 80.55 35.5024 80.31 35.2744 80.142C35.0464 79.974 34.7404 79.89 34.3564 79.89C33.5524 79.89 32.7304 80.196 31.8904 80.808V87H30.3604V78.792H31.3324L31.7824 79.728ZM53.6898 87.216C52.6458 87.216 51.7698 86.922 51.0618 86.334C50.3538 85.734 49.9998 84.876 49.9998 83.76C49.9998 82.86 50.2458 82.116 50.7378 81.528C51.2418 80.94 51.9198 80.424 52.7718 79.98C52.0758 78.888 51.7278 77.952 51.7278 77.172C51.7278 76.14 52.0338 75.348 52.6458 74.796C53.2698 74.232 54.0078 73.95 54.8598 73.95C55.7238 73.95 56.4678 74.226 57.0918 74.778C57.7278 75.318 58.0458 76.056 58.0458 76.992C58.0458 77.94 57.7218 78.684 57.0738 79.224C56.5578 79.656 55.8498 80.082 54.9498 80.502C55.6938 81.426 56.6298 82.416 57.7578 83.472C58.3458 82.644 58.7598 81.714 58.9998 80.682L60.4578 80.97C60.1458 82.326 59.6058 83.496 58.8378 84.48C59.5458 85.116 60.2718 85.734 61.0158 86.334L60.0078 87.378C59.2518 86.766 58.5318 86.154 57.8478 85.542C56.5758 86.658 55.1898 87.216 53.6898 87.216ZM53.6898 85.884C54.7578 85.884 55.7898 85.44 56.7858 84.552C55.4778 83.328 54.4098 82.182 53.5818 81.114C52.9458 81.438 52.4538 81.804 52.1058 82.212C51.7578 82.608 51.5838 83.136 51.5838 83.796C51.5838 84.456 51.7818 84.972 52.1778 85.344C52.5858 85.704 53.0898 85.884 53.6898 85.884ZM53.7618 75.786C53.4618 76.11 53.3118 76.572 53.3118 77.172C53.3118 77.772 53.5818 78.498 54.1218 79.35C55.3098 78.81 56.0298 78.288 56.2818 77.784C56.4018 77.544 56.4618 77.28 56.4618 76.992C56.4618 76.464 56.2998 76.05 55.9758 75.75C55.6638 75.438 55.2918 75.282 54.8598 75.282C54.4398 75.282 54.0738 75.45 53.7618 75.786ZM74.4477 76.11C73.6077 75.822 72.8277 75.678 72.1077 75.678C71.3877 75.678 70.7997 75.864 70.3437 76.236C69.8877 76.608 69.6597 77.058 69.6597 77.586C69.6597 78.342 70.0617 78.936 70.8657 79.368L73.4037 80.772C74.8197 81.564 75.5277 82.584 75.5277 83.832C75.5277 84.864 75.1617 85.686 74.4297 86.298C73.6977 86.91 72.6657 87.216 71.3337 87.216C70.0017 87.216 68.8077 86.976 67.7517 86.496L68.2017 85.236C69.1857 85.668 70.1517 85.884 71.0997 85.884C72.0597 85.884 72.7677 85.698 73.2237 85.326C73.6797 84.954 73.9077 84.504 73.9077 83.976C73.9077 83.22 73.5057 82.626 72.7017 82.194L70.1637 80.79C68.7477 79.998 68.0397 78.978 68.0397 77.73C68.0397 76.698 68.4057 75.876 69.1377 75.264C69.8697 74.652 70.8537 74.346 72.0897 74.346C72.9297 74.346 73.8717 74.52 74.9157 74.868L74.4477 76.11ZM79.3567 78.792V84.894C79.3567 85.23 79.4767 85.494 79.7167 85.686C79.9687 85.866 80.2927 85.956 80.6887 85.956C81.5407 85.956 82.4167 85.62 83.3167 84.948V78.792H84.8467V87H83.8747L83.4247 85.92C82.5007 86.784 81.4747 87.216 80.3467 87.216C79.6267 87.216 79.0267 87.024 78.5467 86.64C78.0667 86.256 77.8267 85.698 77.8267 84.966V78.792H79.3567ZM89.4056 76.866C89.2136 77.058 88.9796 77.154 88.7036 77.154C88.4276 77.154 88.1936 77.058 88.0016 76.866C87.8096 76.662 87.7136 76.422 87.7136 76.146C87.7136 75.87 87.8096 75.636 88.0016 75.444C88.2056 75.24 88.4396 75.138 88.7036 75.138C88.9676 75.138 89.1956 75.24 89.3876 75.444C89.5916 75.636 89.6936 75.87 89.6936 76.146C89.6936 76.422 89.5976 76.662 89.4056 76.866ZM87.9476 78.792H89.4776V87H87.9476V78.792ZM94.4117 79.926V84.858C94.4117 85.578 94.7537 85.938 95.4377 85.938C95.8337 85.938 96.3077 85.824 96.8597 85.596L97.0577 86.802C96.4697 87.078 95.8517 87.216 95.2037 87.216C94.5557 87.216 94.0157 87.024 93.5837 86.64C93.1517 86.244 92.9357 85.644 92.9357 84.84V79.926H91.8017V78.792H92.9357V77.172L94.0517 76.146H94.4117V78.792H96.7337V79.926H94.4117ZM102.329 85.956C103.193 85.956 104.057 85.698 104.921 85.182L105.443 86.262C104.435 86.898 103.355 87.216 102.203 87.216C101.063 87.216 100.157 86.856 99.4853 86.136C98.8133 85.404 98.4773 84.354 98.4773 82.986C98.4773 81.618 98.8253 80.544 99.5213 79.764C100.217 78.972 101.141 78.576 102.293 78.576C103.337 78.576 104.159 78.9 104.759 79.548C105.011 79.812 105.221 80.196 105.389 80.7C105.569 81.204 105.659 81.798 105.659 82.482L105.101 83.112H100.007C100.043 85.008 100.817 85.956 102.329 85.956ZM104.147 81.978C104.147 81.306 103.973 80.766 103.625 80.358C103.277 79.95 102.815 79.746 102.239 79.746C101.675 79.746 101.195 79.95 100.799 80.358C100.403 80.754 100.163 81.294 100.079 81.978H104.147ZM112.115 80.232C111.503 79.968 110.927 79.836 110.387 79.836C109.343 79.836 108.821 80.154 108.821 80.79C108.821 81.342 109.517 81.876 110.909 82.392C111.425 82.584 111.899 82.884 112.331 83.292C112.775 83.7 112.997 84.192 112.997 84.768C112.997 85.596 112.727 86.214 112.187 86.622C111.647 87.018 110.897 87.216 109.937 87.216C108.977 87.216 108.041 86.952 107.129 86.424L107.579 85.308C108.335 85.74 109.193 85.956 110.153 85.956C110.561 85.956 110.891 85.872 111.143 85.704C111.395 85.524 111.521 85.284 111.521 84.984C111.521 84.684 111.377 84.426 111.089 84.21C110.801 83.994 110.453 83.802 110.045 83.634C109.637 83.466 109.229 83.286 108.821 83.094C108.413 82.89 108.065 82.608 107.777 82.248C107.489 81.888 107.345 81.462 107.345 80.97C107.345 80.202 107.603 79.614 108.119 79.206C108.647 78.786 109.313 78.576 110.117 78.576C110.921 78.576 111.737 78.756 112.565 79.116L112.115 80.232Z" fill="#939393"/>
<path d="M300.898 81.942V87H299.35V74.562H302.626C303.85 74.562 304.864 74.892 305.668 75.552C306.472 76.2 306.874 77.106 306.874 78.27C306.874 79.11 306.652 79.824 306.208 80.412C305.764 80.988 305.164 81.408 304.408 81.672C305.032 82.392 306.19 84.168 307.882 87H306.01C304.342 84.12 303.286 82.434 302.842 81.942H300.898ZM300.898 80.61H302.626C303.454 80.61 304.09 80.406 304.534 79.998C304.99 79.59 305.218 79.014 305.218 78.27C305.218 77.526 304.99 76.95 304.534 76.542C304.09 76.134 303.454 75.93 302.626 75.93H300.898V80.61ZM312.477 85.956C313.341 85.956 314.205 85.698 315.069 85.182L315.591 86.262C314.583 86.898 313.503 87.216 312.351 87.216C311.211 87.216 310.305 86.856 309.633 86.136C308.961 85.404 308.625 84.354 308.625 82.986C308.625 81.618 308.973 80.544 309.669 79.764C310.365 78.972 311.289 78.576 312.441 78.576C313.485 78.576 314.307 78.9 314.907 79.548C315.159 79.812 315.369 80.196 315.537 80.7C315.717 81.204 315.807 81.798 315.807 82.482L315.249 83.112H310.155C310.191 85.008 310.965 85.956 312.477 85.956ZM314.295 81.978C314.295 81.306 314.121 80.766 313.773 80.358C313.425 79.95 312.963 79.746 312.387 79.746C311.823 79.746 311.343 79.95 310.947 80.358C310.551 80.754 310.311 81.294 310.227 81.978H314.295ZM322.263 80.232C321.651 79.968 321.075 79.836 320.535 79.836C319.491 79.836 318.969 80.154 318.969 80.79C318.969 81.342 319.665 81.876 321.057 82.392C321.573 82.584 322.047 82.884 322.479 83.292C322.923 83.7 323.145 84.192 323.145 84.768C323.145 85.596 322.875 86.214 322.335 86.622C321.795 87.018 321.045 87.216 320.085 87.216C319.125 87.216 318.189 86.952 317.277 86.424L317.727 85.308C318.483 85.74 319.341 85.956 320.301 85.956C320.709 85.956 321.039 85.872 321.291 85.704C321.543 85.524 321.669 85.284 321.669 84.984C321.669 84.684 321.525 84.426 321.237 84.21C320.949 83.994 320.601 83.802 320.193 83.634C319.785 83.466 319.377 83.286 318.969 83.094C318.561 82.89 318.213 82.608 317.925 82.248C317.637 81.888 317.493 81.462 317.493 80.97C317.493 80.202 317.751 79.614 318.267 79.206C318.795 78.786 319.461 78.576 320.265 78.576C321.069 78.576 321.885 78.756 322.713 79.116L322.263 80.232ZM327.155 79.926V84.858C327.155 85.578 327.497 85.938 328.181 85.938C328.577 85.938 329.051 85.824 329.603 85.596L329.801 86.802C329.213 87.078 328.595 87.216 327.947 87.216C327.299 87.216 326.759 87.024 326.327 86.64C325.895 86.244 325.679 85.644 325.679 84.84V79.926H324.545V78.792H325.679V77.172L326.795 76.146H327.155V78.792H329.477V79.926H327.155ZM336.279 82.086V81.294C336.279 80.322 335.775 79.836 334.767 79.836C333.975 79.836 333.147 80.094 332.283 80.61L331.761 79.53C332.769 78.894 333.855 78.576 335.019 78.576C335.835 78.576 336.501 78.786 337.017 79.206C337.545 79.614 337.809 80.25 337.809 81.114V87H336.837L336.387 85.92C336.003 86.316 335.547 86.634 335.019 86.874C334.491 87.102 334.011 87.216 333.579 87.216C332.835 87.216 332.241 87.012 331.797 86.604C331.353 86.196 331.131 85.662 331.131 85.002C331.131 83.058 332.847 82.086 336.279 82.086ZM333.291 83.832C333.063 84.036 332.907 84.222 332.823 84.39C332.751 84.546 332.715 84.756 332.715 85.02C332.715 85.272 332.823 85.494 333.039 85.686C333.267 85.866 333.561 85.956 333.921 85.956C334.677 85.956 335.463 85.62 336.279 84.948V83.148C334.767 83.172 333.771 83.4 333.291 83.832ZM342.14 78.792V84.894C342.14 85.23 342.26 85.494 342.5 85.686C342.752 85.866 343.076 85.956 343.472 85.956C344.324 85.956 345.2 85.62 346.1 84.948V78.792H347.63V87H346.658L346.208 85.92C345.284 86.784 344.258 87.216 343.13 87.216C342.41 87.216 341.81 87.024 341.33 86.64C340.85 86.256 340.61 85.698 340.61 84.966V78.792H342.14ZM350.587 78.792H351.559L352.009 80.232H352.081C352.741 79.38 353.647 78.864 354.799 78.684L354.961 80.106C354.397 80.142 353.851 80.286 353.323 80.538C352.795 80.79 352.393 81.126 352.117 81.546V87H350.587V78.792ZM361.125 82.086V81.294C361.125 80.322 360.621 79.836 359.613 79.836C358.821 79.836 357.993 80.094 357.129 80.61L356.607 79.53C357.615 78.894 358.701 78.576 359.865 78.576C360.681 78.576 361.347 78.786 361.863 79.206C362.391 79.614 362.655 80.25 362.655 81.114V87H361.683L361.233 85.92C360.849 86.316 360.393 86.634 359.865 86.874C359.337 87.102 358.857 87.216 358.425 87.216C357.681 87.216 357.087 87.012 356.643 86.604C356.199 86.196 355.977 85.662 355.977 85.002C355.977 83.058 357.693 82.086 361.125 82.086ZM358.137 83.832C357.909 84.036 357.753 84.222 357.669 84.39C357.597 84.546 357.561 84.756 357.561 85.02C357.561 85.272 357.669 85.494 357.885 85.686C358.113 85.866 358.407 85.956 358.767 85.956C359.523 85.956 360.309 85.62 361.125 84.948V83.148C359.613 83.172 358.617 83.4 358.137 83.832ZM372.584 80.79V87H371.054V80.862C371.054 80.55 370.928 80.31 370.676 80.142C370.436 79.974 370.112 79.89 369.704 79.89C368.852 79.89 367.97 80.196 367.058 80.808V87H365.528V78.792H366.5L366.95 79.728C367.874 78.96 368.876 78.576 369.956 78.576C370.76 78.576 371.396 78.78 371.864 79.188C372.344 79.596 372.584 80.13 372.584 80.79ZM377.304 79.926V84.858C377.304 85.578 377.646 85.938 378.33 85.938C378.726 85.938 379.2 85.824 379.752 85.596L379.95 86.802C379.362 87.078 378.744 87.216 378.096 87.216C377.448 87.216 376.908 87.024 376.476 86.64C376.044 86.244 375.828 85.644 375.828 84.84V79.926H374.694V78.792H375.828V77.172L376.944 76.146H377.304V78.792H379.626V79.926H377.304Z" fill="#939393"/>
<path d="M552.35 87V74.562H559.658L559.316 75.93H553.898V80.034H559.01V81.348H553.898V85.632H560V87H552.35ZM561.245 78.792H563.009L565.079 81.636L567.077 78.792H568.805L565.907 82.788L569.003 87H567.239L564.935 83.85L562.721 87H560.993L564.107 82.716L561.245 78.792ZM573.886 78.576C574.69 78.576 575.506 78.756 576.334 79.116L575.884 80.232C575.272 79.968 574.618 79.836 573.922 79.836C573.238 79.836 572.692 80.094 572.284 80.61C571.888 81.126 571.69 81.882 571.69 82.878C571.69 83.874 571.9 84.636 572.32 85.164C572.74 85.692 573.292 85.956 573.976 85.956C574.66 85.956 575.368 85.788 576.1 85.452L576.442 86.64C575.602 87.024 574.75 87.216 573.886 87.216C572.77 87.216 571.858 86.814 571.15 86.01C570.454 85.194 570.106 84.15 570.106 82.878C570.106 81.594 570.454 80.556 571.15 79.764C571.858 78.972 572.77 78.576 573.886 78.576ZM581.736 85.956C582.6 85.956 583.464 85.698 584.328 85.182L584.85 86.262C583.842 86.898 582.762 87.216 581.61 87.216C580.47 87.216 579.564 86.856 578.892 86.136C578.22 85.404 577.884 84.354 577.884 82.986C577.884 81.618 578.232 80.544 578.928 79.764C579.624 78.972 580.548 78.576 581.7 78.576C582.744 78.576 583.566 78.9 584.166 79.548C584.418 79.812 584.628 80.196 584.796 80.7C584.976 81.204 585.066 81.798 585.066 82.482L584.508 83.112H579.414C579.45 85.008 580.224 85.956 581.736 85.956ZM583.554 81.978C583.554 81.306 583.38 80.766 583.032 80.358C582.684 79.95 582.222 79.746 581.646 79.746C581.082 79.746 580.602 79.95 580.206 80.358C579.81 80.754 579.57 81.294 579.486 81.978H583.554ZM590.46 85.992C591.36 85.992 592.056 85.686 592.548 85.074C593.04 84.462 593.286 83.718 593.286 82.842C593.286 81.954 593.07 81.24 592.638 80.7C592.218 80.16 591.636 79.89 590.892 79.89C590.604 79.89 590.262 79.974 589.866 80.142C589.47 80.31 589.116 80.532 588.804 80.808V85.668C589.368 85.884 589.92 85.992 590.46 85.992ZM588.804 91.14H587.31V78.792H588.282L588.696 79.728C589.572 78.96 590.502 78.576 591.486 78.576C592.47 78.576 593.274 78.96 593.898 79.728C594.522 80.496 594.834 81.498 594.834 82.734C594.834 83.958 594.468 85.014 593.736 85.902C593.016 86.778 591.984 87.216 590.64 87.216C590.04 87.216 589.428 87.132 588.804 86.964V91.14ZM599.086 79.926V84.858C599.086 85.578 599.428 85.938 600.112 85.938C600.508 85.938 600.982 85.824 601.534 85.596L601.732 86.802C601.144 87.078 600.526 87.216 599.878 87.216C599.23 87.216 598.69 87.024 598.258 86.64C597.826 86.244 597.61 85.644 597.61 84.84V79.926H596.476V78.792H597.61V77.172L598.726 76.146H599.086V78.792H601.408V79.926H599.086ZM605.312 76.866C605.12 77.058 604.886 77.154 604.61 77.154C604.334 77.154 604.1 77.058 603.908 76.866C603.716 76.662 603.62 76.422 603.62 76.146C603.62 75.87 603.716 75.636 603.908 75.444C604.112 75.24 604.346 75.138 604.61 75.138C604.874 75.138 605.102 75.24 605.294 75.444C605.498 75.636 605.6 75.87 605.6 76.146C605.6 76.422 605.504 76.662 605.312 76.866ZM603.854 78.792H605.384V87H603.854V78.792ZM611.848 79.746C611.392 79.746 610.996 79.848 610.66 80.052C610.336 80.256 610.096 80.52 609.94 80.844C609.652 81.456 609.508 82.11 609.508 82.806C609.508 84.966 610.258 86.046 611.758 86.046C612.214 86.046 612.604 85.944 612.928 85.74C613.252 85.536 613.498 85.272 613.666 84.948C613.954 84.348 614.098 83.694 614.098 82.986C614.098 80.826 613.348 79.746 611.848 79.746ZM611.848 78.576C613.18 78.576 614.152 78.99 614.764 79.818C615.376 80.646 615.682 81.726 615.682 83.058C615.682 84.018 615.43 84.906 614.926 85.722C614.65 86.166 614.236 86.526 613.684 86.802C613.132 87.078 612.472 87.216 611.704 87.216C610.384 87.216 609.424 86.82 608.824 86.028C608.224 85.236 607.924 84.174 607.924 82.842C607.924 82.062 608.044 81.402 608.284 80.862C608.536 80.322 608.8 79.908 609.076 79.62C609.352 79.32 609.73 79.074 610.21 78.882C610.69 78.678 611.236 78.576 611.848 78.576ZM625.127 80.79V87H623.597V80.862C623.597 80.55 623.471 80.31 623.219 80.142C622.979 79.974 622.655 79.89 622.247 79.89C621.395 79.89 620.513 80.196 619.601 80.808V87H618.071V78.792H619.043L619.493 79.728C620.417 78.96 621.419 78.576 622.499 78.576C623.303 78.576 623.939 78.78 624.407 79.188C624.887 79.596 625.127 80.13 625.127 80.79ZM632.511 82.086V81.294C632.511 80.322 632.007 79.836 630.999 79.836C630.207 79.836 629.379 80.094 628.515 80.61L627.993 79.53C629.001 78.894 630.087 78.576 631.251 78.576C632.067 78.576 632.733 78.786 633.249 79.206C633.777 79.614 634.041 80.25 634.041 81.114V87H633.069L632.619 85.92C632.235 86.316 631.779 86.634 631.251 86.874C630.723 87.102 630.243 87.216 629.811 87.216C629.067 87.216 628.473 87.012 628.029 86.604C627.585 86.196 627.363 85.662 627.363 85.002C627.363 83.058 629.079 82.086 632.511 82.086ZM629.523 83.832C629.295 84.036 629.139 84.222 629.055 84.39C628.983 84.546 628.947 84.756 628.947 85.02C628.947 85.272 629.055 85.494 629.271 85.686C629.499 85.866 629.793 85.956 630.153 85.956C630.909 85.956 631.695 85.62 632.511 84.948V83.148C630.999 83.172 630.003 83.4 629.523 83.832ZM636.842 74.076H638.318V87H636.842V74.076ZM646.459 87V74.562H653.461L653.119 75.93H648.007V80.034H652.813V81.348H648.007V87H646.459ZM658.481 79.746C658.025 79.746 657.629 79.848 657.293 80.052C656.969 80.256 656.729 80.52 656.573 80.844C656.285 81.456 656.141 82.11 656.141 82.806C656.141 84.966 656.891 86.046 658.391 86.046C658.847 86.046 659.237 85.944 659.561 85.74C659.885 85.536 660.131 85.272 660.299 84.948C660.587 84.348 660.731 83.694 660.731 82.986C660.731 80.826 659.981 79.746 658.481 79.746ZM658.481 78.576C659.813 78.576 660.785 78.99 661.397 79.818C662.009 80.646 662.315 81.726 662.315 83.058C662.315 84.018 662.063 84.906 661.559 85.722C661.283 86.166 660.869 86.526 660.317 86.802C659.765 87.078 659.105 87.216 658.337 87.216C657.017 87.216 656.057 86.82 655.457 86.028C654.857 85.236 654.557 84.174 654.557 82.842C654.557 82.062 654.677 81.402 654.917 80.862C655.169 80.322 655.433 79.908 655.709 79.62C655.985 79.32 656.363 79.074 656.843 78.882C657.323 78.678 657.869 78.576 658.481 78.576ZM668.069 79.746C667.613 79.746 667.217 79.848 666.881 80.052C666.557 80.256 666.317 80.52 666.161 80.844C665.873 81.456 665.729 82.11 665.729 82.806C665.729 84.966 666.479 86.046 667.979 86.046C668.435 86.046 668.825 85.944 669.149 85.74C669.473 85.536 669.719 85.272 669.887 84.948C670.175 84.348 670.319 83.694 670.319 82.986C670.319 80.826 669.569 79.746 668.069 79.746ZM668.069 78.576C669.401 78.576 670.373 78.99 670.985 79.818C671.597 80.646 671.903 81.726 671.903 83.058C671.903 84.018 671.651 84.906 671.147 85.722C670.871 86.166 670.457 86.526 669.905 86.802C669.353 87.078 668.693 87.216 667.925 87.216C666.605 87.216 665.645 86.82 665.045 86.028C664.445 85.236 664.145 84.174 664.145 82.842C664.145 82.062 664.265 81.402 664.505 80.862C664.757 80.322 665.021 79.908 665.297 79.62C665.573 79.32 665.951 79.074 666.431 78.882C666.911 78.678 667.457 78.576 668.069 78.576ZM679.818 74.076H681.294V87H680.322L679.872 85.92C678.972 86.784 678.042 87.216 677.082 87.216C676.134 87.216 675.348 86.85 674.724 86.118C674.1 85.374 673.788 84.372 673.788 83.112C673.788 81.852 674.16 80.802 674.904 79.962C675.648 79.11 676.608 78.684 677.784 78.684C678.42 78.684 679.098 78.828 679.818 79.116V74.076ZM678.162 79.908C677.262 79.908 676.566 80.214 676.074 80.826C675.582 81.438 675.336 82.182 675.336 83.058C675.336 83.934 675.54 84.636 675.948 85.164C676.356 85.692 676.884 85.956 677.532 85.956C677.892 85.956 678.276 85.86 678.684 85.668C679.104 85.464 679.482 85.188 679.818 84.84V80.232C679.254 80.016 678.702 79.908 678.162 79.908Z" fill="#939393"/>
<path d="M853.35 87V74.562H858.03C858.93 74.562 859.74 74.724 860.46 75.048C861.18 75.372 861.762 75.804 862.206 76.344C863.118 77.472 863.574 78.804 863.574 80.34C863.574 82.284 862.986 83.88 861.81 85.128C860.634 86.376 859.068 87 857.112 87H853.35ZM857.832 75.93H854.898V85.632H857.112C858.6 85.632 859.752 85.164 860.568 84.228C861.384 83.292 861.792 81.996 861.792 80.34C861.792 79.104 861.444 78.06 860.748 77.208C860.064 76.356 859.092 75.93 857.832 75.93ZM869.43 85.956C870.294 85.956 871.158 85.698 872.022 85.182L872.544 86.262C871.536 86.898 870.456 87.216 869.304 87.216C868.164 87.216 867.258 86.856 866.586 86.136C865.914 85.404 865.578 84.354 865.578 82.986C865.578 81.618 865.926 80.544 866.622 79.764C867.318 78.972 868.242 78.576 869.394 78.576C870.438 78.576 871.26 78.9 871.86 79.548C872.112 79.812 872.322 80.196 872.49 80.7C872.67 81.204 872.76 81.798 872.76 82.482L872.202 83.112H867.108C867.144 85.008 867.918 85.956 869.43 85.956ZM871.248 81.978C871.248 81.306 871.074 80.766 870.726 80.358C870.378 79.95 869.916 79.746 869.34 79.746C868.776 79.746 868.296 79.95 867.9 80.358C867.504 80.754 867.264 81.294 867.18 81.978H871.248ZM879.216 80.232C878.604 79.968 878.028 79.836 877.488 79.836C876.444 79.836 875.922 80.154 875.922 80.79C875.922 81.342 876.618 81.876 878.01 82.392C878.526 82.584 879 82.884 879.432 83.292C879.876 83.7 880.098 84.192 880.098 84.768C880.098 85.596 879.828 86.214 879.288 86.622C878.748 87.018 877.998 87.216 877.038 87.216C876.078 87.216 875.142 86.952 874.23 86.424L874.68 85.308C875.436 85.74 876.294 85.956 877.254 85.956C877.662 85.956 877.992 85.872 878.244 85.704C878.496 85.524 878.622 85.284 878.622 84.984C878.622 84.684 878.478 84.426 878.19 84.21C877.902 83.994 877.554 83.802 877.146 83.634C876.738 83.466 876.33 83.286 875.922 83.094C875.514 82.89 875.166 82.608 874.878 82.248C874.59 81.888 874.446 81.462 874.446 80.97C874.446 80.202 874.704 79.614 875.22 79.206C875.748 78.786 876.414 78.576 877.218 78.576C878.022 78.576 878.838 78.756 879.666 79.116L879.216 80.232ZM884.108 79.926V84.858C884.108 85.578 884.45 85.938 885.134 85.938C885.53 85.938 886.004 85.824 886.556 85.596L886.754 86.802C886.166 87.078 885.548 87.216 884.9 87.216C884.252 87.216 883.712 87.024 883.28 86.64C882.848 86.244 882.632 85.644 882.632 84.84V79.926H881.498V78.792H882.632V77.172L883.748 76.146H884.108V78.792H886.43V79.926H884.108ZM890.334 76.866C890.142 77.058 889.908 77.154 889.632 77.154C889.356 77.154 889.122 77.058 888.93 76.866C888.738 76.662 888.642 76.422 888.642 76.146C888.642 75.87 888.738 75.636 888.93 75.444C889.134 75.24 889.368 75.138 889.632 75.138C889.896 75.138 890.124 75.24 890.316 75.444C890.52 75.636 890.622 75.87 890.622 76.146C890.622 76.422 890.526 76.662 890.334 76.866ZM888.876 78.792H890.406V87H888.876V78.792ZM900.56 80.79V87H899.03V80.862C899.03 80.55 898.904 80.31 898.652 80.142C898.412 79.974 898.088 79.89 897.68 79.89C896.828 79.89 895.946 80.196 895.034 80.808V87H893.504V78.792H894.476L894.926 79.728C895.85 78.96 896.852 78.576 897.932 78.576C898.736 78.576 899.372 78.78 899.84 79.188C900.32 79.596 900.56 80.13 900.56 80.79ZM907.944 82.086V81.294C907.944 80.322 907.44 79.836 906.432 79.836C905.64 79.836 904.812 80.094 903.948 80.61L903.426 79.53C904.434 78.894 905.52 78.576 906.684 78.576C907.5 78.576 908.166 78.786 908.682 79.206C909.21 79.614 909.474 80.25 909.474 81.114V87H908.502L908.052 85.92C907.668 86.316 907.212 86.634 906.684 86.874C906.156 87.102 905.676 87.216 905.244 87.216C904.5 87.216 903.906 87.012 903.462 86.604C903.018 86.196 902.796 85.662 902.796 85.002C902.796 83.058 904.512 82.086 907.944 82.086ZM904.956 83.832C904.728 84.036 904.572 84.222 904.488 84.39C904.416 84.546 904.38 84.756 904.38 85.02C904.38 85.272 904.488 85.494 904.704 85.686C904.932 85.866 905.226 85.956 905.586 85.956C906.342 85.956 907.128 85.62 907.944 84.948V83.148C906.432 83.172 905.436 83.4 904.956 83.832ZM914.183 79.926V84.858C914.183 85.578 914.525 85.938 915.209 85.938C915.605 85.938 916.079 85.824 916.631 85.596L916.829 86.802C916.241 87.078 915.623 87.216 914.975 87.216C914.327 87.216 913.787 87.024 913.355 86.64C912.923 86.244 912.707 85.644 912.707 84.84V79.926H911.573V78.792H912.707V77.172L913.823 76.146H914.183V78.792H916.505V79.926H914.183ZM920.409 76.866C920.217 77.058 919.983 77.154 919.707 77.154C919.431 77.154 919.197 77.058 919.005 76.866C918.813 76.662 918.717 76.422 918.717 76.146C918.717 75.87 918.813 75.636 919.005 75.444C919.209 75.24 919.443 75.138 919.707 75.138C919.971 75.138 920.199 75.24 920.391 75.444C920.595 75.636 920.697 75.87 920.697 76.146C920.697 76.422 920.601 76.662 920.409 76.866ZM918.951 78.792H920.481V87H918.951V78.792ZM926.945 79.746C926.489 79.746 926.093 79.848 925.757 80.052C925.433 80.256 925.193 80.52 925.037 80.844C924.749 81.456 924.605 82.11 924.605 82.806C924.605 84.966 925.355 86.046 926.855 86.046C927.311 86.046 927.701 85.944 928.025 85.74C928.349 85.536 928.595 85.272 928.763 84.948C929.051 84.348 929.195 83.694 929.195 82.986C929.195 80.826 928.445 79.746 926.945 79.746ZM926.945 78.576C928.277 78.576 929.249 78.99 929.861 79.818C930.473 80.646 930.779 81.726 930.779 83.058C930.779 84.018 930.527 84.906 930.023 85.722C929.747 86.166 929.333 86.526 928.781 86.802C928.229 87.078 927.569 87.216 926.801 87.216C925.481 87.216 924.521 86.82 923.921 86.028C923.321 85.236 923.021 84.174 923.021 82.842C923.021 82.062 923.141 81.402 923.381 80.862C923.633 80.322 923.897 79.908 924.173 79.62C924.449 79.32 924.827 79.074 925.307 78.882C925.787 78.678 926.333 78.576 926.945 78.576ZM940.223 80.79V87H938.693V80.862C938.693 80.55 938.567 80.31 938.315 80.142C938.075 79.974 937.751 79.89 937.343 79.89C936.491 79.89 935.609 80.196 934.697 80.808V87H933.167V78.792H934.139L934.589 79.728C935.513 78.96 936.515 78.576 937.595 78.576C938.399 78.576 939.035 78.78 939.503 79.188C939.983 79.596 940.223 80.13 940.223 80.79Z" fill="#939393"/>
</svg>
